<svg id="ba8815c1-e09e-450c-bb68-8eac4af57309" data-name="Capa 1" xmlns="http://www.w3.org/2000/svg" xmlns:xlink="http://www.w3.org/1999/xlink" viewBox="0 0 792.26985 199.43955"><defs><style>.a4badf13-7fcd-44e6-9b47-f719fc66b283,.ab4dcbb7-946d-4c8c-8aec-9fbeb032eb9f,.abdd683d-8b0d-4696-9ae9-fd41d1a7e018,.b1de9079-b130-47d7-a9d4-7abf123772ef,.b1e34ee0-8d96-4e05-aef0-2688d518deab,.eb6de9fb-8046-4e21-a5c4-871806ae9847,.ee4cc9b8-a65f-46cf-81a5-44bc5153d536,.ff444b08-6c3e-4926-95e2-5e27d714cd76{fill-rule:evenodd;}.a4badf13-7fcd-44e6-9b47-f719fc66b283{fill:url(#e0dd0386-ca60-45ba-9f73-347a29309205);}.b1e34ee0-8d96-4e05-aef0-2688d518deab{fill:url(#e5f076e8-004e-4103-bcd9-636b59a24cbe);}.ee4cc9b8-a65f-46cf-81a5-44bc5153d536{fill:#00376f;}.abdd683d-8b0d-4696-9ae9-fd41d1a7e018{fill:#575757;}.ab4dcbb7-946d-4c8c-8aec-9fbeb032eb9f{fill:url(#afde6823-e83f-4d25-8065-74d1e90448ee);}.b1de9079-b130-47d7-a9d4-7abf123772ef{fill:url(#a9748e1c-7e5e-4bb4-aef3-45d9151756fc);}.eb6de9fb-8046-4e21-a5c4-871806ae9847{fill:url(#e51dab3a-8d0d-45de-9c57-e4caf4602670);}.ff444b08-6c3e-4926-95e2-5e27d714cd76{fill:url(#ad627562-a50b-49b4-96d8-4b7d50b69b5c);}</style><linearGradient id="e0dd0386-ca60-45ba-9f73-347a29309205" x1="251.49213" y1="249.66704" x2="254.13307" y2="249.66704" gradientTransform="matrix(-45.80839, 20.04396, 20.04396, 45.80839, 6616.90565, -16354.89527)" gradientUnits="userSpaceOnUse"><stop offset="0" stop-color="#007fff"/><stop offset="1" stop-color="#4500ff"/></linearGradient><linearGradient id="e5f076e8-004e-4103-bcd9-636b59a24cbe" x1="250.36292" y1="249.10617" x2="253.00386" y2="249.10617" gradientTransform="matrix(-52.90093, 22.90396, 22.90396, 52.90093, 7665.09124, -18887.23631)" gradientUnits="userSpaceOnUse"><stop offset="0" stop-color="#00c0ff"/><stop offset="1" stop-color="#008cff"/></linearGradient><linearGradient id="afde6823-e83f-4d25-8065-74d1e90448ee" x1="245.90164" y1="251.07123" x2="248.54258" y2="251.07123" gradientTransform="matrix(-111.1801, 35.8024, 35.8024, 111.1801, 19134.25915, -36705.78124)" xlink:href="#e5f076e8-004e-4103-bcd9-636b59a24cbe"/><linearGradient id="a9748e1c-7e5e-4bb4-aef3-45d9151756fc" x1="245.90164" y1="251.21259" x2="248.54258" y2="251.21259" gradientTransform="matrix(-111.1801, 35.8024, 35.8024, 111.1801, 19134.25915, -36705.78124)" xlink:href="#e5f076e8-004e-4103-bcd9-636b59a24cbe"/><linearGradient id="e51dab3a-8d0d-45de-9c57-e4caf4602670" x1="245.90164" y1="251.46441" x2="248.54258" y2="251.46441" gradientTransform="matrix(-111.1801, 35.8024, 35.8024, 111.1801, 19134.25915, -36705.78124)" xlink:href="#e5f076e8-004e-4103-bcd9-636b59a24cbe"/><linearGradient id="ad627562-a50b-49b4-96d8-4b7d50b69b5c" x1="245.90164" y1="251.7325" x2="248.54258" y2="251.7325" gradientTransform="matrix(-111.1801, 35.8024, 35.8024, 111.1801, 19134.25915, -36705.78124)" xlink:href="#e5f076e8-004e-4103-bcd9-636b59a24cbe"/></defs><path class="a4badf13-7fcd-44e6-9b47-f719fc66b283" d="M100.71836,176.07854,1.491,199.71978V113.08636l99.75-24.71964,32.87262,19.61992-33.39549,68.09194Z" transform="translate(-1.49102 -0.28022)"/><path class="b1e34ee0-8d96-4e05-aef0-2688d518deab" d="M101.24105,88.36653,1.491,113.07422V26.44038L106.98737.28022l27.12644,21.06062L101.24119,88.36635Z" transform="translate(-1.49102 -0.28022)"/><path class="ee4cc9b8-a65f-46cf-81a5-44bc5153d536" d="M101.24105,88.36653,1.491,130.03346V113.07422Z" transform="translate(-1.49102 -0.28022)"/><path class="abdd683d-8b0d-4696-9ae9-fd41d1a7e018" d="M239.76276,90.24094a21.7891,21.7891,0,0,1,13.47363,8.19484,23.94037,23.94037,0,0,1,5.27669,15.27824,24.6281,24.6281,0,0,1-3.81835,13.68108,25.44192,25.44192,0,0,1-11.04187,9.23633,40.45984,40.45984,0,0,1-17.08537,3.33342H184.76181V43.01739H224.7625a41.48943,41.48943,0,0,1,17.01533,3.19455,24.23735,24.23735,0,0,1,10.83355,8.88919,23.28238,23.28238,0,0,1,3.68,12.917q0,8.47261-4.51512,14.16709a24.14116,24.14116,0,0,1-12.01352,8.05581Zm-15.97192,33.89012q7.08258,0,11.04187-3.33338,3.95749-3.3336,3.95839-9.44487,0-6.25007-4.16675-9.792-4.16761-3.54183-11.25019-3.54174H204.20542v26.112ZM204.20542,83.01867h17.77867q6.946,0,10.69522-3.12522,3.75008-3.1251,3.75007-8.95869,0-5.83332-3.75007-9.028T221.98409,58.7122H204.20542Z" transform="translate(-1.49102 -0.28022)"/><path class="abdd683d-8b0d-4696-9ae9-fd41d1a7e018" d="M347.68311,63.0182,300.04237,176.35586H279.34874l16.667-38.335L265.1801,63.01829h21.80709l19.862,53.75176,20.13867-53.75176h20.69535Z" transform="translate(-1.49102 -0.28022)"/><path class="abdd683d-8b0d-4696-9ae9-fd41d1a7e018" d="M380.7404,78.99074v37.2235q0,3.889,1.875,5.62526,1.875,1.73611,6.32015,1.73621h9.02675V139.965H385.74049q-24.5855,0-24.58375-23.88961V78.99075h-9.16856V63.01812h9.16856V43.98965H380.7404V63.01812h17.22193V78.99075Z" transform="translate(-1.49102 -0.28022)"/><path class="abdd683d-8b0d-4696-9ae9-fd41d1a7e018" d="M483.52028,99.82472a45.81027,45.81027,0,0,1-.555,7.50029h-56.251q.6933,8.33365,5.83342,13.05606a17.9832,17.9832,0,0,0,12.63854,4.72227q10.83264,0,15.41694-9.30584H481.577A35.06141,35.06141,0,0,1,468.79839,134.062q-9.44607,7.15324-23.1954,7.15315a40.13377,40.13377,0,0,1-19.93034-4.93076,34.708,34.708,0,0,1-13.752-13.95878,42.78182,42.78182,0,0,1-4.93009-20.834,43.57069,43.57069,0,0,1,4.86181-20.973,33.90827,33.90827,0,0,1,13.61191-13.88927,43.70339,43.70339,0,0,1,39.79237-.139A33.22269,33.22269,0,0,1,478.72855,79.8935a40.55494,40.55494,0,0,1,4.79173,19.93119Zm-20.13863-5.5556a15.42006,15.42006,0,0,0-5.41677-12.01441,19.19073,19.19073,0,0,0-12.9169-4.51407,17.65009,17.65009,0,0,0-12.15357,4.37525q-4.9318,4.3751-6.04174,12.15323Z" transform="translate(-1.49102 -0.28022)"/><path class="ab4dcbb7-946d-4c8c-8aec-9fbeb032eb9f" d="M574.72773,43.15609v96.8088H562.08919V96.07464H512.78163v43.89024h-12.6385V43.15608h12.6385V85.65765h49.30756V43.15608Z" transform="translate(-1.49102 -0.28022)"/><path class="b1de9079-b130-47d7-a9d4-7abf123772ef" d="M608.89639,63.85141v76.11348H596.25613V63.85141ZM602.7846,51.48985a8.5368,8.5368,0,0,1-8.61182-8.61149A8.5368,8.5368,0,0,1,602.7846,34.267a7.9282,7.9282,0,0,1,5.90347,2.5,8.89993,8.89993,0,0,1,0,12.22273A7.92835,7.92835,0,0,1,602.7846,51.48985Z" transform="translate(-1.49102 -0.28022)"/><path class="eb6de9fb-8046-4e21-a5c4-871806ae9847" d="M625.69922,101.63063a42.75856,42.75856,0,0,1,4.72172-20.48686,34.27138,34.27138,0,0,1,12.9869-13.68091,35.88436,35.88436,0,0,1,18.542-4.86126,34.42891,34.42891,0,0,1,16.52864,4.09721A29.5586,29.5586,0,0,1,690.14532,77.4632V37.184H702.9239V139.96515H690.14532V125.65923a29.576,29.576,0,0,1-11.11011,11.18087,33.07922,33.07922,0,0,1-17.22369,4.37524,34.62811,34.62811,0,0,1-31.39058-19.02852A43.69308,43.69308,0,0,1,625.69922,101.63063Zm64.4461.13882a30.94874,30.94874,0,0,0-3.4717-15.00042,24.51491,24.51491,0,0,0-9.37516-9.792,26.58724,26.58724,0,0,0-25.9038-.0695,24.18292,24.18292,0,0,0-9.30512,9.72268,30.92919,30.92919,0,0,0-3.47346,15.00042,31.64314,31.64314,0,0,0,3.47346,15.20874,24.56373,24.56373,0,0,0,9.30512,9.86152,25.16636,25.16636,0,0,0,12.9169,3.40291,25.54463,25.54463,0,0,0,12.9869-3.40291,24.40772,24.40772,0,0,0,9.37516-9.86152A31.35539,31.35539,0,0,0,690.14532,101.76945Z" transform="translate(-1.49102 -0.28022)"/><path class="ff444b08-6c3e-4926-95e2-5e27d714cd76" d="M793.76087,98.99151a74.21839,74.21839,0,0,1-.41665,7.63916H732.50785q.69588,11.25045,7.71022,17.57013a24.512,24.512,0,0,0,17.01357,6.31961q8.19612,0,13.68023-3.81957a20.2091,20.2091,0,0,0,7.70841-10.20865h13.61187A32.71035,32.71035,0,0,1,780.01031,134.34q-9.16763,6.8751-22.77876,6.87528a38.47235,38.47235,0,0,1-19.37533-4.86126,34.408,34.408,0,0,1-13.40359-13.8199,42.863,42.863,0,0,1-4.86172-20.76472,43.45483,43.45483,0,0,1,4.72352-20.695,33.143,33.143,0,0,1,13.26351-13.68112,39.48757,39.48757,0,0,1,19.6537-4.79172,38.19845,38.19845,0,0,1,19.167,4.72222,32.69689,32.69689,0,0,1,12.84867,12.98657,38.32458,38.32458,0,0,1,4.51335,18.68116Zm-13.05514-2.63887a23.32192,23.32192,0,0,0-3.19514-12.431,20.77432,20.77432,0,0,0-8.68187-7.917A27.074,27.074,0,0,0,756.677,73.29623a23.42469,23.42469,0,0,0-16.32037,6.11129q-6.73593,6.1114-7.70841,16.94512Z" transform="translate(-1.49102 -0.28022)"/></svg>