<svg id="e6bad7a8-5142-4ca7-aed8-47484f620b13" data-name="Capa 1" xmlns="http://www.w3.org/2000/svg" xmlns:xlink="http://www.w3.org/1999/xlink" viewBox="0 0 794 199.87509"><defs><style>.aa3805c9-ae68-4e80-82c6-eb6c39350fd8,.b2822b72-4bf5-47b0-9e20-f1087b8c55d7,.b646a149-1caf-4fba-b0dc-c978979de64c,.b7120528-f58d-42a5-89d7-33f29494c01b,.b86f9d54-471b-44e4-88de-e3746dc6d033,.bc07e371-055c-4eeb-857e-724072397e34,.bf2c5023-cead-4716-8971-c7207c32f152,.f59a1053-60e5-4190-b08e-747ef71fbe1d{fill-rule:evenodd;}.b7120528-f58d-42a5-89d7-33f29494c01b{fill:url(#a003b484-6e68-49aa-80b0-fe07f297c33c);}.bf2c5023-cead-4716-8971-c7207c32f152{fill:url(#aabd346c-0fc9-4665-ab11-bbd330f44723);}.b2822b72-4bf5-47b0-9e20-f1087b8c55d7{fill:#00376f;}.b86f9d54-471b-44e4-88de-e3746dc6d033{fill:#f4f4f4;}.bc07e371-055c-4eeb-857e-724072397e34{fill:url(#f320ecbe-f071-4637-b8d4-d801b5c6f707);}.f59a1053-60e5-4190-b08e-747ef71fbe1d{fill:url(#ac3585f6-bc0e-4fe2-8e75-8e235ff34660);}.b646a149-1caf-4fba-b0dc-c978979de64c{fill:url(#a078b4a9-a9e6-4b79-b26e-d924db5b6567);}.aa3805c9-ae68-4e80-82c6-eb6c39350fd8{fill:url(#b8b6ba07-f4fb-4aac-b22c-aa202346d8ec);}</style><linearGradient id="a003b484-6e68-49aa-80b0-fe07f297c33c" x1="251.51637" y1="249.65889" x2="254.16308" y2="249.65889" gradientTransform="matrix(-45.80839, 20.04396, 20.04396, 45.80839, 6616.90565, -16354.89527)" gradientUnits="userSpaceOnUse"><stop offset="0" stop-color="#007fff"/><stop offset="1" stop-color="#4500ff"/></linearGradient><linearGradient id="aabd346c-0fc9-4665-ab11-bbd330f44723" x1="250.38162" y1="249.09615" x2="253.02833" y2="249.09615" gradientTransform="matrix(-52.90093, 22.90396, 22.90396, 52.90093, 7665.09124, -18887.23631)" gradientUnits="userSpaceOnUse"><stop offset="0" stop-color="#00c0ff"/><stop offset="1" stop-color="#008cff"/></linearGradient><linearGradient id="f320ecbe-f071-4637-b8d4-d801b5c6f707" x1="245.89953" y1="251.07074" x2="248.54624" y2="251.07074" gradientTransform="matrix(-111.1801, 35.8024, 35.8024, 111.1801, 19134.25915, -36705.78124)" xlink:href="#aabd346c-0fc9-4665-ab11-bbd330f44723"/><linearGradient id="ac3585f6-bc0e-4fe2-8e75-8e235ff34660" x1="245.89953" y1="251.21242" x2="248.54624" y2="251.21242" gradientTransform="matrix(-111.1801, 35.8024, 35.8024, 111.1801, 19134.25915, -36705.78124)" xlink:href="#aabd346c-0fc9-4665-ab11-bbd330f44723"/><linearGradient id="a078b4a9-a9e6-4b79-b26e-d924db5b6567" x1="245.89953" y1="251.46479" x2="248.54624" y2="251.46479" gradientTransform="matrix(-111.1801, 35.8024, 35.8024, 111.1801, 19134.25915, -36705.78124)" xlink:href="#aabd346c-0fc9-4665-ab11-bbd330f44723"/><linearGradient id="b8b6ba07-f4fb-4aac-b22c-aa202346d8ec" x1="245.89953" y1="251.73346" x2="248.54624" y2="251.73346" gradientTransform="matrix(-111.1801, 35.8024, 35.8024, 111.1801, 19134.25915, -36705.78124)" xlink:href="#aabd346c-0fc9-4665-ab11-bbd330f44723"/></defs><path class="b7120528-f58d-42a5-89d7-33f29494c01b" d="M99.444,176.30713,0,200V113.17739L99.96786,88.40378l32.94441,19.66276L99.44385,176.30717Z" transform="translate(0 -0.12491)"/><path class="bf2c5023-cead-4716-8971-c7207c32f152" d="M99.96786,88.40358,0,113.16523V26.3422L105.72673.12491,132.9124,21.23152,99.968,88.40341Z" transform="translate(0 -0.12491)"/><path class="b2822b72-4bf5-47b0-9e20-f1087b8c55d7" d="M99.96786,88.40358,0,130.16151V113.16523Z" transform="translate(0 -0.12491)"/><path class="b86f9d54-471b-44e4-88de-e3746dc6d033" d="M238.79207,90.28208a21.83672,21.83672,0,0,1,13.50305,8.21274,23.99262,23.99262,0,0,1,5.28822,15.31161,24.68188,24.68188,0,0,1-3.82669,13.71095,25.49757,25.49757,0,0,1-11.066,9.25651,40.54845,40.54845,0,0,1-17.12269,3.34069H183.671V42.95541h40.088a41.57987,41.57987,0,0,1,17.05249,3.20153,24.29027,24.29027,0,0,1,10.85721,8.90859,23.33323,23.33323,0,0,1,3.68806,12.94524q0,8.49113-4.525,14.198a24.19385,24.19385,0,0,1-12.03976,8.0734Zm-16.00679,33.96413q7.098,0,11.066-3.34066,3.96612-3.34086,3.967-9.46549,0-6.26372-4.17585-9.81335-4.17672-3.54957-11.27476-3.54948H203.15709v26.169ZM203.15709,83.044h17.81749q6.96117,0,10.71858-3.132,3.75825-3.13193,3.75825-8.97825,0-5.84607-3.75825-9.04769t-10.71858-3.20157H203.15709Z" transform="translate(0 -0.12491)"/><path class="b86f9d54-471b-44e4-88de-e3746dc6d033" d="M346.9481,62.9999,299.20333,176.58506H278.4645l16.70337-38.41874L264.26492,63h21.85471l19.9054,53.86915L326.20767,63h20.74055Z" transform="translate(0 -0.12491)"/><path class="b86f9d54-471b-44e4-88de-e3746dc6d033" d="M380.07758,79.00732V116.3121q0,3.89748,1.87912,5.63755,1.87914,1.73991,6.334,1.74h9.04646v16.42511H385.08858q-24.63916,0-24.63742-23.94178V79.00732h-9.18859V62.99982h9.18859v-19.07h19.62642v19.07h17.25954v16.0075Z" transform="translate(0 -0.12491)"/><path class="b86f9d54-471b-44e4-88de-e3746dc6d033" d="M483.0819,99.88679a45.90923,45.90923,0,0,1-.55618,7.51667h-56.3738q.6948,8.35187,5.84616,13.08458a18.02248,18.02248,0,0,0,12.66613,4.73257q10.85631,0,15.45062-9.32615h21.01952a35.138,35.138,0,0,1-12.80649,18.30436q-9.46668,7.16884-23.246,7.16876a40.2214,40.2214,0,0,1-19.97386-4.94153,34.78381,34.78381,0,0,1-13.782-13.98925,42.8753,42.8753,0,0,1-4.94085-20.87952,43.66585,43.66585,0,0,1,4.87242-21.01885,33.98228,33.98228,0,0,1,13.64164-13.9196,43.79877,43.79877,0,0,1,39.87926-.1393A33.29526,33.29526,0,0,1,478.27972,79.912a40.64353,40.64353,0,0,1,4.80218,19.97471Zm-20.1826-5.56773a15.45374,15.45374,0,0,0-5.4286-12.04064,19.2326,19.2326,0,0,0-12.94511-4.52393,17.68862,17.68862,0,0,0-12.18011,4.3848q-4.94257,4.38465-6.05494,12.17977Z" transform="translate(0 -0.12491)"/><path class="bc07e371-055c-4eeb-857e-724072397e34" d="M574.48854,43.09441v97.02021H561.8224V96.12853H512.40716v43.98608h-12.6661V43.0944h12.6661V85.68879H561.8224V43.0944Z" transform="translate(0 -0.12491)"/><path class="f59a1053-60e5-4190-b08e-747ef71fbe1d" d="M608.73181,63.83492v76.2797H596.064V63.83492Zm-6.12513-12.38855a8.55545,8.55545,0,0,1-8.63063-8.6303,8.55546,8.55546,0,0,1,8.63063-8.63013,7.94553,7.94553,0,0,1,5.91636,2.50551,8.91939,8.91939,0,0,1,0,12.24942A7.94567,7.94567,0,0,1,602.60668,51.44637Z" transform="translate(0 -0.12491)"/><path class="b646a149-1caf-4fba-b0dc-c978979de64c" d="M625.57133,101.69665a42.852,42.852,0,0,1,4.732-20.53161,34.34634,34.34634,0,0,1,13.01527-13.71078,35.96269,35.96269,0,0,1,18.58249-4.87187,34.50413,34.50413,0,0,1,16.56474,4.10615,29.62324,29.62324,0,0,1,11.69232,10.7879V37.10925h12.80648V140.11488H690.15818V125.77772A29.64067,29.64067,0,0,1,679.02381,136.983a33.15148,33.15148,0,0,1-17.26131,4.3848,34.70376,34.70376,0,0,1-31.45914-19.07007A43.78857,43.78857,0,0,1,625.57133,101.69665Zm64.58685.13912a31.01653,31.01653,0,0,0-3.47928-15.03318,24.56866,24.56866,0,0,0-9.39564-9.8134,26.64538,26.64538,0,0,0-25.96037-.06965,24.23579,24.23579,0,0,0-9.32544,9.74392,30.99683,30.99683,0,0,0-3.481,15.03318,31.71232,31.71232,0,0,0,3.481,15.242,24.61734,24.61734,0,0,0,9.32544,9.883A25.2213,25.2213,0,0,0,664.268,130.232a25.60038,25.60038,0,0,0,13.01526-3.41035,24.461,24.461,0,0,0,9.39564-9.883A31.424,31.424,0,0,0,690.15818,101.83577Z" transform="translate(0 -0.12491)"/><path class="aa3805c9-ae68-4e80-82c6-eb6c39350fd8" d="M794,99.05176a74.38007,74.38007,0,0,1-.41756,7.65585H732.61322q.6974,11.275,7.72705,17.6085a24.5655,24.5655,0,0,0,17.05072,6.3334q8.214,0,13.71011-3.8279a20.2533,20.2533,0,0,0,7.72525-10.231H792.468a32.78188,32.78188,0,0,1-12.24854,17.8868q-9.18763,6.89012-22.8285,6.8903a38.55643,38.55643,0,0,1-19.41764-4.87188,34.48317,34.48317,0,0,1-13.43286-13.85008,42.95662,42.95662,0,0,1-4.87234-20.81007,43.54961,43.54961,0,0,1,4.73384-20.74021,33.2154,33.2154,0,0,1,13.29247-13.711A39.57375,39.57375,0,0,1,757.391,62.58234a38.28185,38.28185,0,0,1,19.20883,4.73254A32.76824,32.76824,0,0,1,789.47654,80.3298a38.40824,38.40824,0,0,1,4.52321,18.722Zm-13.08365-2.64463a23.3728,23.3728,0,0,0-3.20212-12.4582,20.81959,20.81959,0,0,0-8.70083-7.93427,27.133,27.133,0,0,0-12.1783-2.71428,23.47585,23.47585,0,0,0-16.356,6.12462q-6.75065,6.12476-7.72524,16.98213Z" transform="translate(0 -0.12491)"/></svg>